HIERARCHY
ROOT HipCenter
{
    OFFSET 0.0 0.0 -0.0
    CHANNELS 6 Xposition Yposition Zposition Zrotation Xrotation Yrotation
    JOINT Spine
    {
        OFFSET 0.0 10.538084030151367 0.0
        CHANNELS 3 Zrotation Xrotation Yrotation
        JOINT ShoulderCenter
        {
            OFFSET 0.0 31.03716468811035 0.0
            CHANNELS 3 Zrotation Xrotation Yrotation
            JOINT LeftShoulder
            {
                OFFSET 19.379974365234375 0.0 0.0
                CHANNELS 3 Zrotation Xrotation Yrotation
                JOINT LeftElbow
                {
                    OFFSET 26.164424896240234 0.0 0.0
                    CHANNELS 3 Zrotation Xrotation Yrotation
                    JOINT LeftWrist
                    {
                        OFFSET 30.866483688354492 0.0 0.0
                        CHANNELS 3 Zrotation Xrotation Yrotation
                        JOINT LeftHand
                        {
                            OFFSET 3.1271591186523438 0.0 0.0
                            CHANNELS 3 Zrotation Xrotation Yrotation
                            End Site
                            {
                                OFFSET 1.2508635520935059 0.0 0.0
                            }
                        }
                    }
                }
            }
            JOINT RightShoulder
            {
                OFFSET -19.379974365234375 0.0 0.0
                CHANNELS 3 Zrotation Xrotation Yrotation
                JOINT RightElbow
                {
                    OFFSET -26.164424896240234 0.0 0.0
                    CHANNELS 3 Zrotation Xrotation Yrotation
                    JOINT RightWrist
                    {
                        OFFSET -30.866483688354492 0.0 0.0
                        CHANNELS 3 Zrotation Xrotation Yrotation
                        JOINT RightHand
                        {
                            OFFSET -3.1271591186523438 0.0 0.0
                            CHANNELS 3 Zrotation Xrotation Yrotation
                            End Site
                            {
                                OFFSET -1.2508635520935059 0.0 0.0
                            }
                        }
                    }
                }
            }
            End Site
            {
                OFFSET 0.0 12.414865493774414 0.0
            }
        }
    }
    JOINT LeftHip
    {
        OFFSET 14.162246704101562 0.0 0.0
        CHANNELS 3 Zrotation Xrotation Yrotation
        JOINT LeftKnee
        {
            OFFSET 0.0 -41.68049621582031 0.0
            CHANNELS 3 Zrotation Xrotation Yrotation
            JOINT LeftAnkle
            {
                OFFSET 0.0 -43.671024322509766 0.0
                CHANNELS 3 Zrotation Xrotation Yrotation
                JOINT LeftFoot
                {
                    OFFSET 0.0 -11.314250946044922 0.0
                    CHANNELS 3 Zrotation Xrotation Yrotation
                    End Site
                    {
                        OFFSET 0.0 0.0 4.525700569152832
                    }
                }
            }
        }
    }
    JOINT RightHip
    {
        OFFSET -14.162246704101562 0.0 0.0
        CHANNELS 3 Zrotation Xrotation Yrotation
        JOINT RightKnee
        {
            OFFSET 0.0 -41.68049621582031 0.0
            CHANNELS 3 Zrotation Xrotation Yrotation
            JOINT RightAnkle
            {
                OFFSET 0.0 -43.671024322509766 0.0
                CHANNELS 3 Zrotation Xrotation Yrotation
                JOINT RightFoot
                {
                    OFFSET 0.0 -11.314250946044922 0.0
                    CHANNELS 3 Zrotation Xrotation Yrotation
                    End Site
                    {
                        OFFSET 0.0 0.0 4.525700569152832
                    }
                }
            }
        }
    }
}
MOTION
Frames: 5
Frame Time: 0.03333333333333333
-2.700000047683716 5.299999713897705 31.299999237060547 -0.5456570446389174 3.810181957645723e-09 -4.899049066472718 -1.883035929016345 -1.823376824020817 -0.06686383353412657 -1.8477213888286045e-08 -1.832170793328986e-07 6.607084845472294 90.48011430567004 -9.79872018695614 166.87248756543028 2.2338173674551194e-06 1.5672644616828754e-06 43.124721667951064 -1.9382818059150972e-06 7.510287710860499 25.077669625889442 3.1805546814635176e-15 8.827812596100317e-32 3.1805546814635176e-15 -90.74741293923728 -1.6659450606058774 -159.11808905207465 -2.0173254351604515e-06 -2.742209104794494e-06 -49.742394431559525 179.99999915281714 -48.80715972089411 145.26966244511786 0.0 -3.1805546814635164e-15 0.0 4.949000417986156 -0.9678692278910349 -24.74842148572803 -7.1194768657468055 18.349713857809313 -17.07060034505024 92.5144794298299 -32.66597857395598 150.81925576947302 -2.2069531490250793e-31 -7.951386703658792e-15 -3.1805546814635168e-15 -19.466181299409214 0.552135134065155 41.9743411835502 0.0722842665163428 -0.00966425663008587 -0.02010575778179713 -64.35567867783136 -45.04423533441566 -138.5293931712167 -3.1805546814635164e-15 -4.4139062980501586e-32 1.5902773407317582e-15
-2.700000047683716 5.299999713897705 31.200000762939453 -0.5456569516551988 0.545624404687756 -4.243284471178013 -1.8776110144498241 -2.1621364964428187 -0.0929484959085469 1.9299388188439884e-08 -1.8294031625611603e-07 6.117005553143063 90.55645341959693 -11.303859434535896 166.5915767690505 3.836458466374886e-06 3.783143778522987e-06 44.62121096381053 -1.2802901388737298e-06 5.163911771999594 23.994062123211993 4.770832022195274e-15 -1.2722218725854065e-14 5.29668755766019e-31 -90.91652512284136 -3.4435130204849806 -158.33511318326921 4.780813908556646e-07 5.79707506371921e-07 -51.76745369293908 179.99999940935692 -49.43489577655615 145.56024965106764 -6.3611093629270335e-15 1.7655625192200634e-31 -3.1805546814635168e-15 4.9997508231694185 -1.8428531283576466 -24.48218414188075 -6.9688250105614165 18.653276414492122 -17.417099174911055 93.10303724054636 -33.093678088599525 151.08354329101425 3.1805546814635168e-15 -2.648343778830095e-31 -9.54166404439055e-15 -19.298287687122286 0.4038187460125636 41.976636147227396 -0.11399726313757087 -0.04000698017047251 -0.08238068980520312 -63.82550549578706 -44.7715634983188 -137.88781795706845 -3.1805546814635164e-15 -1.590277340731758e-15 -6.361109362927033e-15
-2.8000001907348633 5.299999713897705 31.099998474121094 -1.0912162676488306 0.5455710861780888 -4.56422075171693 -1.350639763232344 -1.7625785352042873 -0.0763845196842698 3.5337185168065073e-07 1.8301551272133488e-07 6.421530284441313 90.70321999158608 -12.440374177031437 166.5000810239227 -5.063116593513533e-07 -2.8393329608616286e-07 46.91599493660682 -6.190299608356613e-07 7.1518215867385155 22.39419242342626 -6.3611093629270335e-15 0.0 0.0 -90.7026403997186 -4.525064536285008 -157.95806340911741 2.170375464651992e-06 -4.7225656331140774e-07 -53.756196656036906 179.99999938901811 -48.53037086457954 147.28484179734707 -1.2722218725854067e-14 -3.531125038440127e-31 3.1805546814635168e-15 5.553795724803225 -1.7710906336584111 -23.85382318011934 -6.799451510023694 18.58165320977048 -17.3078729232971 92.34953318399609 -33.65956699955102 150.0226197939722 0.0 0.0 -1.5902773407317582e-15 -19.058786626541416 0.3166698893476725 42.49188116130213 0.0743861459440772 -0.020353447501357105 -0.04285027917128201 -63.430239553810814 -44.67172815778873 -138.04325638260678 3.1805546814635176e-15 -6.3611093629270335e-15 1.1131941385122309e-14
-2.8000001907348633 5.299999713897705 31.0 -1.0809244449694368 0.5404057675779863 -4.590581294335378 -1.4045602044282954 -1.2086143507984088 -0.05330068515043182 -1.6206580723221565e-07 -1.3630516550551928e-08 6.577235937225317 90.9939560648016 -14.375026529858895 166.77997707547198 5.339991448167537e-07 2.1358754027100835e-06 49.13017197745396 -9.205778897875676e-07 3.816794281732331 20.435456005012224 -1.590277340731758e-15 0.0 0.0 -90.46135557830216 -6.7395599035433795 -157.61822621579233 1.706881681414727e-06 -3.579474964969794e-06 -55.501018935374596 -179.99999480291171 -52.20577501282388 145.39248446202717 0.0 -3.1805546814635164e-15 0.0 5.692882444311656 -1.890868702274251 -24.061768102719974 -6.946821233542465 18.6690846655237 -17.55066084381573 92.40764191377444 -33.724341251453716 150.23880351986364 0.0 0.0 -1.5902773407317584e-15 -19.079504577500877 0.4481715309028786 42.743294335546516 -0.10770684768944157 -0.05222397150297539 -0.11044477326699147 -64.09939806749391 -44.5462788325558 -138.88775407758723 3.1805546814635168e-15 -6.3611093629270335e-15 1.5902773407317584e-15
-2.8000001907348633 5.299999713897705 30.89999771118164 -1.08092445473638 0.5404263320292164 -4.238888404701675 -1.608869138807564 -1.029943627082291 -0.04905166699294043 1.9732184804322761e-07 6.462909494861126e-08 6.361577505927097 91.30362559946273 -16.225727079589518 167.10549189747184 -7.662914050401723e-07 1.1815177090813975e-06 51.22283403090045 1.5608669015763831e-06 -1.123540260233879 20.321598238572715 9.54166404439055e-15 -2.648343778830095e-31 -3.1805546814635168e-15 -90.0877517053738 -7.643521155246746 -157.45911696023563 6.81653646414196e-06 -1.4035553697706987e-07 -56.7696502714195 179.99999604331273 -46.27018132600237 144.34938760236275 0.0 6.3611093629270335e-15 0.0 5.553692780177998 -2.0745148174205763 -23.30707014938739 -6.457661654736628 18.875777780365905 -17.910255069183115 91.9947122367364 -33.92202780425337 149.94602331705386 0.0 0.0 -1.5902773407317584e-15 -18.939583503876086 0.4375261510244486 42.02041293408253 0.004369641958220175 0.026179737310711864 0.0550492241633261 -64.24127682129757 -44.78538872307093 -138.78083897606615 6.620859447075238e-32 -1.5902773407317582e-15 4.770832022195274e-15
